<svg width="17" height="16" viewBox="0 0 17 16" fill="none" xmlns="http://www.w3.org/2000/svg">
<path fill-rule="evenodd" clip-rule="evenodd" d="M2.19113 3.30499C2.35128 3.11193 2.59058 3 2.84318 3H14.4705C14.8239 3.00001 15.1735 3.07321 15.4965 3.21488C15.8195 3.35655 16.1089 3.56354 16.346 3.82252C16.5832 4.08149 16.7627 4.3867 16.8732 4.71847C16.9837 5.05024 17.0226 5.40121 16.9874 5.74875L16.4815 10.7488C16.4191 11.3656 16.127 11.9376 15.6619 12.3536C15.1968 12.7696 14.592 13 13.9647 13H5.91267C5.91255 13 5.91278 13 5.91267 13C5.3278 13.0002 4.76061 12.8 4.30825 12.4336C3.85582 12.0671 3.54589 11.557 3.43122 10.9901C3.43121 10.99 3.43122 10.9901 3.43122 10.9901L2.01637 3.99673C1.96685 3.75192 2.03098 3.49806 2.19113 3.30499ZM3.87164 4.66667L5.08483 10.6633C5.12305 10.8523 5.22638 11.0224 5.37719 11.1445C5.52801 11.2667 5.717 11.3334 5.912 11.3333H13.9646C13.9646 11.3333 13.9646 11.3333 13.9646 11.3333C14.1737 11.3333 14.3753 11.2565 14.5304 11.1179C14.6854 10.9792 14.7828 10.7885 14.8036 10.5829L15.3095 5.58292C15.3212 5.46707 15.3082 5.35008 15.2714 5.23949C15.2346 5.1289 15.1747 5.02717 15.0957 4.94084C15.0166 4.85451 14.9202 4.78552 14.8125 4.73829C14.7048 4.69108 14.5883 4.66668 14.4705 4.66667C14.4705 4.66667 14.4706 4.66667 14.4705 4.66667H3.87164Z" fill="#FF6C31"/>
<path fill-rule="evenodd" clip-rule="evenodd" d="M0 0.8C0 0.358172 0.348223 0 0.777778 0H1.72667C2.07344 9.39369e-06 2.4103 0.119203 2.68368 0.338649C2.95706 0.558094 3.15131 0.865205 3.23558 1.2112L3.86571 3.80614C3.9698 4.2348 3.71634 4.66909 3.29959 4.77616C2.88283 4.88322 2.46061 4.62252 2.35651 4.19386L1.72665 1.6H0.777778C0.348223 1.6 0 1.24183 0 0.8ZM4.66667 15.2C4.66667 14.7582 5.01489 14.4 5.44444 14.4H7C7.42956 14.4 7.77778 14.7582 7.77778 15.2C7.77778 15.6418 7.42956 16 7 16H5.44444C5.01489 16 4.66667 15.6418 4.66667 15.2ZM10.8889 15.2C10.8889 14.7582 11.2371 14.4 11.6667 14.4H13.2222C13.6518 14.4 14 14.7582 14 15.2C14 15.6418 13.6518 16 13.2222 16H11.6667C11.2371 16 10.8889 15.6418 10.8889 15.2Z" fill="#FF6C31"/>
</svg>
