<svg width="14" height="14" viewBox="0 0 14 14" fill="none" xmlns="http://www.w3.org/2000/svg">
<rect width="2" height="2" fill="#797979"/>
<rect x="3" width="2" height="2" fill="#797979"/>
<rect x="6" width="2" height="2" fill="#797979"/>
<rect x="9" width="2" height="2" fill="#797979"/>
<rect x="12" width="2" height="2" fill="#797979"/>
<rect y="3" width="2" height="2" fill="#797979"/>
<rect y="6" width="2" height="2" fill="#797979"/>
<rect y="9" width="2" height="2" fill="#797979"/>
<rect y="12" width="2" height="2" fill="#797979"/>
<rect x="3" y="3" width="2" height="2" fill="#797979"/>
<rect x="3" y="6" width="2" height="2" fill="#797979"/>
<rect x="3" y="9" width="2" height="2" fill="#797979"/>
<rect x="3" y="12" width="2" height="2" fill="#797979"/>
<rect x="6" y="3" width="2" height="2" fill="#797979"/>
<rect x="6" y="6" width="2" height="2" fill="#797979"/>
<rect x="9" y="3" width="2" height="2" fill="#797979"/>
<rect x="6" y="9" width="2" height="2" fill="#797979"/>
<rect x="6" y="12" width="2" height="2" fill="#797979"/>
<rect x="12" y="3" width="2" height="2" fill="#797979"/>
<rect x="9" y="6" width="2" height="2" fill="#797979"/>
<rect x="9" y="9" width="2" height="2" fill="#797979"/>
<rect x="9" y="12" width="2" height="2" fill="#797979"/>
<rect x="12" y="6" width="2" height="2" fill="#797979"/>
<rect x="12" y="9" width="2" height="2" fill="#797979"/>
<rect x="12" y="12" width="2" height="2" fill="#797979"/>
</svg>
