<svg width="40" height="40" viewBox="0 0 40 40" fill="none" xmlns="http://www.w3.org/2000/svg">
<circle cx="20" cy="20" r="20" fill="#FF6C34"/>
<path fill-rule="evenodd" clip-rule="evenodd" d="M11.9104 14.7973C12.0988 14.5559 12.3803 14.416 12.6775 14.416H26.3568C26.7725 14.416 27.1837 14.5075 27.5638 14.6846C27.9438 14.8617 28.2843 15.1204 28.5632 15.4442C28.8422 15.7679 29.0535 16.1494 29.1835 16.5641C29.3134 16.9788 29.3592 17.4175 29.3178 17.852L28.7227 24.102C28.6492 24.8731 28.3056 25.588 27.7584 26.108C27.2112 26.628 26.4996 26.916 25.7616 26.916H16.2887C16.2886 26.916 16.2888 26.916 16.2887 26.916C15.6006 26.9162 14.9333 26.666 14.4011 26.208C13.8689 25.7499 13.5042 25.1122 13.3693 24.4036C13.3693 24.4036 13.3693 24.4036 13.3693 24.4036L11.7048 15.6619C11.6465 15.3559 11.722 15.0386 11.9104 14.7973ZM13.8875 16.4993L15.3148 23.9951C15.3597 24.2313 15.4813 24.444 15.6587 24.5967C15.8361 24.7494 16.0585 24.8328 16.2879 24.8327H25.7616C25.7616 24.8327 25.7615 24.8327 25.7616 24.8327C26.0075 24.8327 26.2448 24.7367 26.4271 24.5633C26.6095 24.39 26.7241 24.1517 26.7486 23.8947L27.3437 17.6447C27.3575 17.4999 27.3423 17.3536 27.299 17.2154C27.2556 17.0771 27.1852 16.95 27.0922 16.8421C26.9992 16.7342 26.8857 16.6479 26.7591 16.5889C26.6324 16.5299 26.4953 16.4994 26.3568 16.4993C26.3568 16.4993 26.3568 16.4993 26.3568 16.4993H13.8875Z" fill="white"/>
<path fill-rule="evenodd" clip-rule="evenodd" d="M8.86328 11.666C8.86328 11.1137 9.27296 10.666 9.77831 10.666H10.8947C11.3026 10.666 11.6989 10.815 12.0205 11.0893C12.3422 11.3636 12.5707 11.7475 12.6698 12.18L13.4112 15.4237C13.5336 15.9595 13.2354 16.5024 12.7451 16.6362C12.2549 16.77 11.7581 16.4442 11.6357 15.9083L10.8946 12.666H9.77831C9.27296 12.666 8.86328 12.2183 8.86328 11.666ZM15.6868 29.666C15.6868 29.1137 16.0965 28.666 16.6018 28.666H18.4319C18.9373 28.666 19.3469 29.1137 19.3469 29.666C19.3469 30.2183 18.9373 30.666 18.4319 30.666H16.6018C16.0965 30.666 15.6868 30.2183 15.6868 29.666ZM23.0071 29.666C23.0071 29.1137 23.4167 28.666 23.9221 28.666H25.7522C26.2575 28.666 26.6672 29.1137 26.6672 29.666C26.6672 30.2183 26.2575 30.666 25.7522 30.666H23.9221C23.4167 30.666 23.0071 30.2183 23.0071 29.666Z" fill="white"/>
</svg>
