<svg width="18" height="19" viewBox="0 0 18 19" fill="none" xmlns="http://www.w3.org/2000/svg">
<path fill-rule="evenodd" clip-rule="evenodd" d="M2.31101 3.74068C2.47996 3.52218 2.7324 3.39551 2.99888 3.39551H15.2651C15.6379 3.39552 16.0066 3.47837 16.3474 3.6387C16.6882 3.79903 16.9935 4.0333 17.2436 4.32639C17.4938 4.61948 17.6833 4.9649 17.7998 5.34038C17.9164 5.71586 17.9574 6.11306 17.9203 6.50639L17.3866 12.1651C17.3208 12.8633 17.0126 13.5106 16.522 13.9814C16.0313 14.4522 15.3932 14.7129 14.7314 14.7129H6.23702C6.23691 14.7129 6.23714 14.7129 6.23702 14.7129C5.62002 14.7131 5.02166 14.4866 4.54445 14.0719C4.06716 13.6571 3.7402 13.0798 3.61923 12.4382C3.61923 12.4382 3.61924 12.4382 3.61923 12.4382L2.12665 4.52355C2.0744 4.24649 2.14206 3.95918 2.31101 3.74068ZM4.08385 5.28175L5.3637 12.0684C5.40402 12.2823 5.51302 12.4748 5.67213 12.613C5.83123 12.7513 6.03061 12.8268 6.23632 12.8267H14.7314C14.7314 12.8267 14.7314 12.8267 14.7314 12.8267C14.9519 12.8267 15.1647 12.7398 15.3282 12.5829C15.4918 12.4259 15.5945 12.2101 15.6164 11.9774L16.1501 6.31871C16.1625 6.1876 16.1488 6.0552 16.11 5.93004C16.0711 5.80488 16.008 5.68974 15.9246 5.59204C15.8412 5.49434 15.7394 5.41626 15.6258 5.36281C15.5123 5.30937 15.3894 5.28176 15.2651 5.28175C15.2651 5.28175 15.2651 5.28175 15.2651 5.28175H4.08385Z" fill="#8DB361"/>
<path fill-rule="evenodd" clip-rule="evenodd" d="M0 0.905395C0 0.405359 0.367356 0 0.820513 0H1.82154C2.18737 1.06313e-05 2.54273 0.134908 2.83113 0.383264C3.11953 0.631619 3.32446 0.979191 3.41336 1.37077L4.07811 4.30758C4.18792 4.79271 3.92053 5.28422 3.48088 5.40539C3.04123 5.52656 2.5958 5.23151 2.48599 4.74638L1.82152 1.81079H0.820513C0.367356 1.81079 0 1.40543 0 0.905395ZM4.92308 17.2025C4.92308 16.7025 5.29043 16.2971 5.74359 16.2971H7.38462C7.83777 16.2971 8.20513 16.7025 8.20513 17.2025C8.20513 17.7025 7.83777 18.1079 7.38462 18.1079H5.74359C5.29043 18.1079 4.92308 17.7025 4.92308 17.2025ZM11.4872 17.2025C11.4872 16.7025 11.8545 16.2971 12.3077 16.2971H13.9487C14.4019 16.2971 14.7692 16.7025 14.7692 17.2025C14.7692 17.7025 14.4019 18.1079 13.9487 18.1079H12.3077C11.8545 18.1079 11.4872 17.7025 11.4872 17.2025Z" fill="#8DB361"/>
</svg>
