<svg width="6" height="4" viewBox="0 0 6 4" fill="none" xmlns="http://www.w3.org/2000/svg">
<path d="M2.60119 3.81447L0.143381 0.957047C0.05232 0.851002 0.0013437 0.71385 7.60442e-06 0.571295C-0.000391505 0.491933 0.015212 0.413375 0.0457988 0.34075C0.0763855 0.268126 0.121268 0.203068 0.177516 0.149826C0.284363 0.0475514 0.425653 -0.00613894 0.570323 0.00055896C0.714993 0.00725686 0.851199 0.073795 0.948994 0.185544L3.004 2.57149L5.059 0.185544C5.15767 0.0775277 5.29286 0.0142462 5.43559 0.00925744C5.57831 0.00426868 5.71723 0.0579695 5.82258 0.158854C5.92792 0.259739 5.99132 0.399783 5.99917 0.548981C6.00703 0.698179 5.95873 0.844663 5.86461 0.957047L3.4068 3.81447C3.35563 3.87293 3.2934 3.91962 3.22405 3.95156C3.1547 3.98351 3.07976 4 3.004 4C2.92823 4 2.85329 3.98351 2.78394 3.95156C2.71459 3.91962 2.65236 3.87293 2.60119 3.81447Z" fill="#FF6C34"/>
</svg>
