<svg width="72" height="72" viewBox="0 0 72 72" fill="none" xmlns="http://www.w3.org/2000/svg">
<circle cx="36" cy="36" r="36" fill="#BA2E27"/>
<path d="M35.1905 53C32.9778 53 30.8865 52.5747 28.9167 51.7242C26.9468 50.8747 25.2269 49.7144 23.7568 48.2432C22.2856 46.7731 21.1253 45.0532 20.2758 43.0833C19.4253 41.1135 19 39.0222 19 36.8095C19 34.4889 19.4452 32.3366 20.3357 30.3528C21.2262 28.37 22.4205 26.65 23.9187 25.1929C25.4157 23.7357 27.1357 22.6024 29.0786 21.7929C31.0214 20.9833 33.0587 20.5921 35.1905 20.619C36.2968 20.619 37.3762 20.7135 38.4286 20.9024C39.481 21.0913 40.5603 21.4556 41.6667 21.9952L36.0405 24.5857L43.731 28.3095L46.0786 33.45C43.623 33.7468 41.093 33.4635 38.4885 32.6C35.885 31.7365 33.5714 30.0635 31.5476 27.581C30.6032 29.8746 29.315 31.7635 27.683 33.2476C26.0499 34.7317 24.2349 35.8381 22.2381 36.5667C22.2381 40.3175 23.4999 43.4546 26.0234 45.9782C28.5459 48.5007 31.6016 49.7619 35.1905 49.7619C38.8603 49.7619 41.95 48.4667 44.4595 45.8762C46.969 43.2857 48.1968 40.2635 48.1429 36.8095C48.1429 36.4317 48.1294 36.0944 48.1024 35.7976C48.0754 35.5008 48.0349 35.1635 47.981 34.7857L50.0048 30.3333C50.4905 31.4667 50.8413 32.5525 51.0571 33.5909C51.273 34.6303 51.381 35.7032 51.381 36.8095C51.381 38.9683 50.9697 41.0255 50.1472 42.9813C49.3237 44.9382 48.1903 46.6587 46.7472 48.1429C45.303 49.627 43.596 50.8078 41.6262 51.6853C39.6563 52.5618 37.5111 53 35.1905 53ZM30.3333 40.4524C29.7667 40.4524 29.288 40.2565 28.8972 39.8647C28.5054 39.4739 28.3095 38.9952 28.3095 38.4286C28.3095 37.8619 28.5054 37.3832 28.8972 36.9925C29.288 36.6007 29.7667 36.4048 30.3333 36.4048C30.9 36.4048 31.3787 36.6007 31.7694 36.9925C32.1612 37.3832 32.3571 37.8619 32.3571 38.4286C32.3571 38.9952 32.1612 39.4739 31.7694 39.8647C31.3787 40.2565 30.9 40.4524 30.3333 40.4524ZM40.0476 40.4524C39.481 40.4524 39.0023 40.2565 38.6115 39.8647C38.2197 39.4739 38.0238 38.9952 38.0238 38.4286C38.0238 37.8619 38.2197 37.3832 38.6115 36.9925C39.0023 36.6007 39.481 36.4048 40.0476 36.4048C40.6143 36.4048 41.093 36.6007 41.4837 36.9925C41.8755 37.3832 42.0714 37.8619 42.0714 38.4286C42.0714 38.9952 41.8755 39.4739 41.4837 39.8647C41.093 40.2565 40.6143 40.4524 40.0476 40.4524ZM47.3333 30.3333L45.5524 26.4476L41.6667 24.6667L45.5524 22.8857L47.3333 19L49.1143 22.8857L53 24.6667L49.1143 26.4476L47.3333 30.3333Z" fill="white"/>
</svg>
