<svg width="50" height="50" viewBox="0 0 50 50" fill="none" xmlns="http://www.w3.org/2000/svg">
<path d="M38.6115 4.62899C34.5826 1.93699 29.8459 0.500094 25.0005 0.5C18.5064 0.512579 12.2819 3.09791 7.68992 7.68992C3.09779 12.282 0.512451 18.5067 0.5 25.001C0.500187 29.8463 1.93707 34.5827 4.62899 38.6115C7.32109 42.6405 11.1475 45.7807 15.6243 47.635C20.101 49.4894 25.0272 49.9746 29.7797 49.0292C34.5322 48.0839 38.8977 45.7505 42.3241 42.3241C45.7505 38.8977 48.0839 34.5322 49.0292 29.7797C49.9746 25.0272 49.4894 20.101 47.635 15.6243C45.7807 11.1475 42.6405 7.32109 38.6115 4.62899Z" fill="white" stroke="#FF6C31"/>
<path d="M17.1641 26.4183L26.7795 35.0721C27.1363 35.3927 27.5979 35.5722 28.0776 35.5769C28.3446 35.5783 28.609 35.5234 28.8534 35.4157C29.0977 35.308 29.3167 35.15 29.4958 34.9519C29.84 34.5757 30.0207 34.0782 29.9981 33.5688C29.9756 33.0595 29.7517 32.5799 29.3756 32.2356L21.3468 25L29.3756 17.7644C29.7391 17.417 29.9521 16.941 29.9688 16.4385C29.9856 15.9359 29.8049 15.4468 29.4654 15.0759C29.126 14.705 28.6547 14.4818 28.1526 14.4541C27.6506 14.4264 27.1577 14.5965 26.7795 14.9279L17.1641 23.5817C16.9674 23.7619 16.8102 23.981 16.7028 24.2252C16.5953 24.4693 16.5398 24.7332 16.5398 25C16.5398 25.2668 16.5953 25.5306 16.7028 25.7748C16.8102 26.019 16.9674 26.2381 17.1641 26.4183Z" fill="#FF6C31"/>
</svg>
