<svg width="10" height="13" viewBox="0 0 10 13" fill="none" xmlns="http://www.w3.org/2000/svg">
<path d="M5 6.70312C5.34375 6.70312 5.63812 6.58553 5.88313 6.35033C6.12771 6.11553 6.25 5.83313 6.25 5.50313C6.25 5.17313 6.12771 4.89052 5.88313 4.65533C5.63812 4.42053 5.34375 4.30313 5 4.30313C4.65625 4.30313 4.36208 4.42053 4.1175 4.65533C3.8725 4.89052 3.75 5.17313 3.75 5.50313C3.75 5.83313 3.8725 6.11553 4.1175 6.35033C4.36208 6.58553 4.65625 6.70312 5 6.70312ZM5 11.1131C6.27083 9.99313 7.21354 8.97552 7.82812 8.06033C8.44271 7.14553 8.75 6.33313 8.75 5.62313C8.75 4.53312 8.38792 3.64053 7.66375 2.94533C6.94 2.25053 6.05208 1.90313 5 1.90313C3.94792 1.90313 3.05979 2.25053 2.33562 2.94533C1.61188 3.64053 1.25 4.53312 1.25 5.62313C1.25 6.33313 1.55729 7.14553 2.17188 8.06033C2.78646 8.97552 3.72917 9.99313 5 11.1131ZM5 12.7031C3.32292 11.3331 2.07042 10.0605 1.2425 8.88533C0.414167 7.71053 0 6.62313 0 5.62313C0 4.12313 0.502708 2.92813 1.50813 2.03813C2.51313 1.14812 3.67708 0.703125 5 0.703125C6.32292 0.703125 7.48688 1.14812 8.49187 2.03813C9.49729 2.92813 10 4.12313 10 5.62313C10 6.62313 9.58604 7.71053 8.75813 8.88533C7.92979 10.0605 6.67708 11.3331 5 12.7031Z" fill="#8DB361"/>
</svg>
