<svg width="63" height="49" viewBox="0 0 63 49" fill="none" xmlns="http://www.w3.org/2000/svg">
<path d="M18.2724 0.816701C18.7047 0.494949 19.1966 0.260846 19.72 0.127758C20.2434 -0.00532959 20.7882 -0.0347964 21.3231 0.0410412C21.858 0.116879 22.3726 0.296536 22.8376 0.569753C23.3025 0.842971 23.7087 1.2044 24.0329 1.6334C24.3571 2.0624 24.593 2.55058 24.7271 3.07006C24.8612 3.58953 24.8909 4.13013 24.8144 4.661C24.738 5.19186 24.557 5.70259 24.2817 6.16402C24.0064 6.62545 23.6422 7.02855 23.21 7.35031C16.7747 12.1403 13.088 16.7995 10.9772 20.8667C13.8754 20.1263 16.9341 20.3004 19.728 21.3647C22.5219 22.429 24.9124 24.3308 26.567 26.8056C28.2217 29.2804 29.0583 32.2053 28.9608 35.1738C28.8632 38.1423 27.8361 41.0069 26.0225 43.3694C24.2088 45.7319 21.6985 47.4749 18.8406 48.3563C15.9827 49.2376 12.9191 49.2134 10.0757 48.2871C7.2323 47.3608 4.75029 45.5783 2.97469 43.1875C1.19908 40.7967 0.218095 37.9163 0.168076 34.9466C-0.359162 29.9318 0.358461 24.8651 2.2583 20.1888C4.71473 14.0391 9.51649 7.33397 18.2724 0.816701ZM52.304 0.816701C52.7363 0.494949 53.2282 0.260846 53.7516 0.127758C54.275 -0.00532959 54.8198 -0.0347964 55.3547 0.0410412C55.8896 0.116879 56.4042 0.296536 56.8691 0.569753C57.3341 0.842971 57.7403 1.2044 58.0645 1.6334C58.3887 2.0624 58.6246 2.55058 58.7587 3.07006C58.8928 3.58953 58.9225 4.13013 58.846 4.661C58.7696 5.19186 58.5886 5.70259 58.3133 6.16402C58.038 6.62545 57.6738 7.02855 57.2415 7.35031C50.8063 12.1403 47.1196 16.7995 45.0088 20.8667C47.907 20.1263 50.9656 20.3004 53.7596 21.3647C56.5535 22.429 58.9439 24.3308 60.5986 26.8056C62.2532 29.2804 63.0899 32.2053 62.9923 35.1738C62.8947 38.1423 61.8677 41.0069 60.0541 43.3694C58.2404 45.7319 55.7301 47.4749 52.8722 48.3563C50.0143 49.2376 46.9507 49.2134 44.1073 48.2871C41.2639 47.3608 38.7819 45.5783 37.0063 43.1875C35.2307 40.7967 34.2497 37.9163 34.1997 34.9466C33.6724 29.9318 34.39 24.8651 36.2899 20.1888C38.7504 14.0391 43.5481 7.33397 52.304 0.816701Z" fill="#F3F5F7"/>
</svg>
