<svg width="598" height="357" viewBox="0 0 598 357" fill="none" xmlns="http://www.w3.org/2000/svg">
<path d="M297.841 357C436.747 357 549.352 351.243 549.352 344.143C549.352 337.042 436.747 331.285 297.841 331.285C158.935 331.285 46.3301 337.042 46.3301 344.143C46.3301 351.243 158.935 357 297.841 357Z" fill="#DBEAF1"/>
<path d="M568.77 152.338C568.763 152.606 568.756 152.866 568.749 153.134C568.05 185.683 563.705 210.846 557.485 230.293L541.362 239.829L554.303 238.421L554.674 238.383C546.648 259.689 536.333 273.166 526.795 281.669C520.859 286.973 515.224 290.348 510.63 292.483C510.33 292.628 510.03 292.766 509.731 292.896C508.989 293.225 508.275 293.524 507.598 293.784H498.987C498.887 293.348 498.802 292.919 498.716 292.483C498.659 292.208 498.602 291.94 498.552 291.664C498.473 291.304 498.409 290.945 498.338 290.585C490.234 248.056 504.658 215.316 522.529 192.395C522.579 192.318 522.636 192.242 522.707 192.165C528.928 184.213 535.562 177.448 541.797 171.876L545.086 182.461L546.342 167.966C557.171 158.95 566.06 153.83 568.243 152.629C568.592 152.43 568.77 152.338 568.77 152.338Z" fill="#9AE5A6"/>
<path d="M569.07 152.493L568.749 153.113L549.18 191.738L548.831 192.42L543.502 202.958L543.316 203.302L526.302 236.877L526.281 236.923L498.566 291.643L498.145 292.462L497.482 293.763H496.732L497.389 292.462L498.352 290.564L525.703 236.563L526.217 235.568L568.256 152.6L568.485 152.148L569.07 152.493Z" fill="white"/>
<path d="M566.19 188.794L565.888 188.266L543.227 203.155L543.528 203.684L566.19 188.794Z" fill="white"/>
<path d="M566.71 180.964L566.408 180.436L548.644 192.108L548.945 192.636L566.71 180.964Z" fill="white"/>
<path d="M526.319 236.959L523.109 192.143L522.533 192.19L525.743 237.007L526.319 236.959Z" fill="white"/>
<path d="M495.195 300.766C495.195 300.766 515.049 312.231 544.911 295.325L535.751 290.021L551.046 291.544C562.76 283.692 575.801 271.462 589.626 252.727L586.13 250.707L590.767 251.166C593.1 247.959 595.454 244.569 597.83 240.979C597.83 240.979 589.362 239.694 577.135 240.52L570.45 249.237L572.633 240.918C547.579 243.566 510.704 255.505 495.195 300.766Z" fill="#83C08D"/>
<path d="M493.915 298.973L597.998 241.314L597.7 240.696L493.617 298.354L493.915 298.973Z" fill="white"/>
<path d="M585.146 258.335L570.767 255.925L570.674 256.568L585.052 258.978L585.146 258.335Z" fill="white"/>
<path d="M580.401 263.889L563.697 259.72L563.56 260.353L580.264 264.522L580.401 263.889Z" fill="white"/>
<path d="M515.465 55.9501V336.248C515.465 340.159 512.511 343.335 508.859 343.335H380.428C376.783 343.335 373.822 340.159 373.822 336.248V55.9501C373.822 52.0317 376.783 48.8633 380.428 48.8633H508.859C512.511 48.8633 515.465 52.0317 515.465 55.9501Z" fill="#57220D"/>
<path d="M509.346 55.9501V336.248C509.346 340.159 506.392 343.335 502.74 343.335H374.309C370.664 343.335 367.703 340.159 367.703 336.248V55.9501C367.703 52.0317 370.664 48.8633 374.309 48.8633H502.74C506.392 48.8633 509.346 52.0317 509.346 55.9501Z" fill="#FF6C31"/>
<path d="M499.622 85.02V307.192C499.622 311.715 496.418 315.381 492.473 315.381H384.574C380.629 315.381 377.426 311.715 377.426 307.192V85.02C377.426 80.4969 380.629 76.8311 384.574 76.8311H492.473C496.418 76.8311 499.622 80.4969 499.622 85.02Z" fill="white"/>
<path d="M456.365 62.3857H420.674C420.324 62.3857 420.039 62.0796 420.039 61.7046C420.039 61.3296 420.324 61.0234 420.674 61.0234H456.365C456.714 61.0234 457 61.3296 457 61.7046C457.007 62.0796 456.721 62.3857 456.365 62.3857Z" fill="white"/>
<path d="M470.152 241.595H406.903C402.994 241.595 399.791 238.159 399.791 233.965V231.041C399.791 226.847 402.994 223.411 406.903 223.411H470.152C474.062 223.411 477.265 226.847 477.265 231.041V233.965C477.265 238.166 474.062 241.595 470.152 241.595Z" fill="#FF6C31"/>
<path d="M493.849 317.024H383.196C378.309 317.024 374.336 312.616 374.336 307.19V85.0179C374.336 79.5995 378.309 75.1836 383.196 75.1836H493.849C498.736 75.1836 502.71 79.5918 502.71 85.0179V307.19C502.71 312.608 498.736 317.024 493.849 317.024ZM383.196 78.4668C380 78.4668 377.396 81.4056 377.396 85.0179V307.19C377.396 310.802 380 313.741 383.196 313.741H493.849C497.045 313.741 499.649 310.802 499.649 307.19V85.0179C499.649 81.4056 497.045 78.4668 493.849 78.4668H383.196Z" fill="white"/>
<path d="M387.44 194.616H489.704C491.808 194.616 493.535 192.764 493.535 190.506V119.898C493.535 117.64 491.816 115.788 489.704 115.788H387.44C385.336 115.788 383.609 117.633 383.609 119.898V190.506C383.609 192.771 385.336 194.616 387.44 194.616Z" fill="#FF6C31"/>
<path d="M411.275 170H392.863C392.292 170 391.828 169.502 391.828 168.89V165.094C391.828 164.482 392.292 163.984 392.863 163.984H411.275C411.846 163.984 412.309 164.482 412.309 165.094V168.89C412.309 169.495 411.846 170 411.275 170Z" fill="white"/>
<path d="M435.607 169.997H417.195C416.624 169.997 416.16 169.499 416.16 168.887V165.091C416.16 164.479 416.624 163.981 417.195 163.981H435.607C436.178 163.981 436.641 164.479 436.641 165.091V168.887C436.641 169.492 436.178 169.997 435.607 169.997Z" fill="white"/>
<path d="M459.941 169.997H441.529C440.958 169.997 440.494 169.499 440.494 168.887V165.091C440.494 164.479 440.958 163.981 441.529 163.981H459.941C460.512 163.981 460.975 164.479 460.975 165.091V168.887C460.975 169.492 460.512 169.997 459.941 169.997Z" fill="white"/>
<path d="M484.279 170H465.866C465.296 170 464.832 169.502 464.832 168.89V165.094C464.832 164.482 465.296 163.984 465.866 163.984H484.279C484.85 163.984 485.313 164.482 485.313 165.094V168.89C485.313 169.495 484.85 170 484.279 170Z" fill="white"/>
<path d="M484.052 181.768H459.833C459.141 181.768 458.57 181.156 458.57 180.414V177.1C458.57 176.357 459.134 175.745 459.833 175.745H484.052C484.744 175.745 485.315 176.35 485.315 177.1V180.414C485.308 181.164 484.744 181.768 484.052 181.768Z" fill="white"/>
<path d="M396.504 139.069V131.163C396.504 129.434 397.817 128.033 399.429 128.033H413.746C415.359 128.033 416.664 129.441 416.664 131.163V139.069C416.664 140.799 415.352 142.199 413.746 142.199H399.429C397.817 142.199 396.504 140.791 396.504 139.069ZM399.429 128.867C398.252 128.867 397.289 129.893 397.289 131.163V139.069C397.289 140.332 398.245 141.365 399.429 141.365H413.746C414.924 141.365 415.887 140.34 415.887 139.069V131.163C415.887 129.901 414.931 128.867 413.746 128.867H399.429Z" fill="white"/>
<path d="M481.91 134.01C481.91 133.911 481.946 133.819 482.017 133.742C485.235 130.291 485.235 124.666 482.017 121.214C481.882 121.069 481.882 120.824 482.017 120.678C482.153 120.533 482.381 120.533 482.517 120.678C486.012 124.428 486.012 130.536 482.517 134.286C482.381 134.431 482.153 134.431 482.017 134.286C481.946 134.202 481.91 134.102 481.91 134.01Z" fill="white"/>
<path d="M480.141 123.122C480.141 123.023 480.176 122.931 480.248 122.854C480.383 122.709 480.611 122.709 480.747 122.854C483.123 125.403 483.123 129.551 480.747 132.099C480.604 132.245 480.383 132.245 480.248 132.099C480.112 131.954 480.112 131.709 480.248 131.564C482.345 129.313 482.345 125.648 480.248 123.39C480.176 123.321 480.141 123.222 480.141 123.122Z" fill="white"/>
<path d="M478.43 129.814C478.43 129.714 478.465 129.623 478.537 129.546C479.6 128.406 479.6 126.554 478.537 125.413C478.401 125.268 478.401 125.023 478.537 124.878C478.672 124.732 478.901 124.732 479.036 124.878C480.377 126.316 480.377 128.651 479.036 130.082C478.893 130.227 478.672 130.227 478.537 130.082C478.465 130.013 478.43 129.913 478.43 129.814Z" fill="white"/>
<path d="M518.381 342.109C518.381 344.228 503.885 345.95 486.015 345.95C468.137 345.95 453.648 344.228 453.648 342.109C453.648 342.07 453.655 342.032 453.663 341.994V331.616H518.359V341.971C518.374 342.024 518.381 342.063 518.381 342.109Z" fill="#F49B51"/>
<path d="M486.015 335.549C503.89 335.549 518.381 333.829 518.381 331.707C518.381 329.585 503.89 327.865 486.015 327.865C468.139 327.865 453.648 329.585 453.648 331.707C453.648 333.829 468.139 335.549 486.015 335.549Z" fill="#FCC659"/>
<path d="M526.031 329.585C526.031 331.705 511.535 333.426 493.665 333.426C475.795 333.426 461.299 331.705 461.299 329.585C461.299 329.546 461.306 329.508 461.313 329.47V319.092H526.01V329.447C526.024 329.493 526.031 329.539 526.031 329.585Z" fill="#F49B51"/>
<path d="M493.663 323.022C511.539 323.022 526.029 321.302 526.029 319.18C526.029 317.058 511.539 315.338 493.663 315.338C475.788 315.338 461.297 317.058 461.297 319.18C461.297 321.302 475.788 323.022 493.663 323.022Z" fill="#FCC659"/>
<path d="M518.381 317.066C518.381 319.186 503.885 320.908 486.015 320.908C468.137 320.908 453.648 319.186 453.648 317.066C453.648 317.028 453.655 316.989 453.663 316.951V306.573H518.359V316.928C518.374 316.974 518.381 317.012 518.381 317.066Z" fill="#F49B51"/>
<path d="M486.015 310.509C503.89 310.509 518.381 308.789 518.381 306.667C518.381 304.545 503.89 302.825 486.015 302.825C468.139 302.825 453.648 304.545 453.648 306.667C453.648 308.789 468.139 310.509 486.015 310.509Z" fill="#FCC659"/>
<path d="M529.85 304.539C529.85 306.659 515.354 308.381 497.483 308.381C479.613 308.381 465.117 306.659 465.117 304.539C465.117 304.5 465.124 304.462 465.131 304.424V294.046H529.828V304.401C529.843 304.454 529.85 304.493 529.85 304.539Z" fill="#F49B51"/>
<path d="M497.485 297.989C515.361 297.989 529.852 296.269 529.852 294.148C529.852 292.026 515.361 290.306 497.485 290.306C479.61 290.306 465.119 292.026 465.119 294.148C465.119 296.269 479.61 297.989 497.485 297.989Z" fill="#FCC659"/>
<path d="M497.485 296.724C512.043 296.724 523.844 295.569 523.844 294.145C523.844 292.72 512.043 291.565 497.485 291.565C482.927 291.565 471.125 292.72 471.125 294.145C471.125 295.569 482.927 296.724 497.485 296.724Z" fill="#F49B51"/>
<path d="M413.506 275.648C395.458 275.12 380.434 290.388 379.934 309.758C379.442 329.121 393.674 345.246 411.73 345.774C429.778 346.302 444.809 331.034 445.302 311.664C445.794 292.301 431.555 276.176 413.506 275.648ZM438.924 311.48C438.731 319.019 435.814 326.021 430.706 331.21C425.605 336.399 418.928 339.147 411.901 338.94C397.398 338.511 385.92 325.516 386.312 309.95C386.505 302.411 389.415 295.409 394.523 290.22C399.445 285.215 405.837 282.482 412.6 282.482C412.85 282.482 413.085 282.49 413.335 282.498C427.603 282.911 438.931 295.5 438.931 310.707C438.931 310.968 438.931 311.22 438.924 311.48Z" fill="#FCC659"/>
<path d="M438.93 310.704C438.93 310.965 438.93 311.217 438.923 311.477C438.73 319.016 435.812 326.018 430.704 331.207C425.604 336.396 418.927 339.144 411.9 338.937C397.397 338.508 385.918 325.513 386.311 309.947C386.503 302.408 389.414 295.406 394.522 290.217C399.444 285.212 405.843 282.479 412.599 282.479C412.848 282.479 413.084 282.487 413.334 282.495C427.601 282.9 438.93 295.498 438.93 310.704Z" fill="#F49B51"/>
<path d="M410.953 332.304V326.992C408.106 326.939 405.167 325.99 403.455 324.681L404.632 321.161C406.394 322.423 408.948 323.426 411.695 323.426C415.176 323.426 417.53 321.268 417.53 318.275C417.53 315.382 415.618 313.592 411.987 312.015C406.986 309.91 403.897 307.492 403.897 302.915C403.897 298.553 406.787 295.239 411.302 294.451V289.14H414.341V294.244C417.28 294.351 419.292 295.193 420.712 296.089L419.485 299.563C418.458 298.928 416.446 297.772 413.307 297.772C409.533 297.772 408.106 300.191 408.106 302.295C408.106 305.028 409.918 306.398 414.184 308.288C419.235 310.5 421.782 313.232 421.782 317.916C421.782 322.071 419.085 325.959 414.035 326.855V332.327H410.953V332.304Z" fill="#FCC659"/>
<path d="M305.994 0.0132953C287.946 -0.514775 272.922 14.7533 272.423 34.1236C271.93 53.4861 286.162 69.6114 304.218 70.1395C322.267 70.6675 337.298 55.3994 337.783 36.0292C338.282 16.659 324.05 0.541365 305.994 0.0132953ZM331.419 35.8379C331.227 43.3763 328.309 50.3789 323.201 55.5678C318.101 60.7566 311.423 63.4965 304.396 63.2975C289.893 62.8689 278.415 49.8738 278.814 34.3072C279.007 26.7688 281.918 19.7662 287.026 14.5773C291.948 9.57213 298.34 6.83994 305.103 6.83994C305.352 6.83994 305.588 6.84759 305.837 6.85524C320.105 7.26851 331.434 19.858 331.434 35.0649C331.427 35.3251 331.427 35.5853 331.419 35.8379Z" fill="#FCC659"/>
<path d="M331.425 35.0677C331.425 35.3279 331.425 35.5805 331.418 35.8407C331.225 43.3791 328.308 50.3818 323.2 55.5706C318.099 60.7595 311.422 63.507 304.388 63.3003C289.885 62.8718 278.406 49.8766 278.799 34.3101C278.991 26.7717 281.902 19.769 287.01 14.5801C291.932 9.57496 298.324 6.84277 305.087 6.84277C305.337 6.84277 305.572 6.85042 305.822 6.85808C320.097 7.27135 331.425 19.8608 331.425 35.0677Z" fill="#F49B51"/>
<path d="M303.447 56.6599V51.3486C300.6 51.295 297.661 50.346 295.949 49.0373L297.126 45.5169C298.888 46.7796 301.442 47.7746 304.189 47.7746C307.67 47.7746 310.024 45.6164 310.024 42.624C310.024 39.7311 308.112 37.9402 304.481 36.3637C299.48 34.259 296.392 31.8406 296.392 27.264C296.392 22.9017 299.281 19.5879 303.796 18.7996V13.4883H306.835V18.593C309.775 18.7001 311.786 19.542 313.206 20.4374L311.979 23.9119C310.952 23.2844 308.94 22.1211 305.801 22.1211C302.027 22.1211 300.601 24.5395 300.601 26.6441C300.601 29.3763 302.412 30.7462 306.679 32.6366C311.729 34.8483 314.276 37.5805 314.276 42.2643C314.276 46.4199 311.579 50.3154 306.529 51.2032V56.6752H303.447V56.6599Z" fill="#FCC659"/>
<path d="M300.575 110.63L303.471 97.3139L315.299 92.0332L317.404 110.63C317.404 110.63 315.649 122.715 304.77 127.039C293.89 131.371 300.575 110.63 300.575 110.63Z" fill="#FCB47E"/>
<path d="M295.918 75.624C295.918 75.624 291.709 100.658 298.55 100.849C305.391 101.04 311.006 98.2162 312.411 96.5172C313.816 94.8259 314.865 86.5451 314.865 86.5451C314.865 86.5451 315.743 75.8153 311.534 73.749C307.318 71.6673 298.193 68.0933 295.918 75.624Z" fill="#FCB47E"/>
<path d="M318.422 91.5483C317.081 94.2116 315.747 96.8214 315.747 96.8214C313.75 96.4846 311.538 93.806 311.146 91.4947C311.146 91.4947 304.854 90.8672 304.633 82.5176C304.633 82.5176 293.711 82.5941 293.454 72.423C293.19 62.2596 304.112 64.877 307.729 67.9841C311.346 71.0913 313.536 72.6679 319.171 74.6195C325.1 76.6552 320.149 88.1273 318.422 91.5483Z" fill="#1C2C5F"/>
<path d="M313.317 333.344L311.969 318.551H297.395L300.562 332.916C300.562 332.916 302.253 337.73 307.154 337.554C311.862 337.385 313.317 333.344 313.317 333.344Z" fill="#FCB47E"/>
<path d="M385.096 287.063L373.903 278.3L364.215 289.979L378.561 297.777C378.561 297.777 380.337 298.152 383.933 294.792C387.485 291.486 385.096 287.063 385.096 287.063Z" fill="#FCB47E"/>
<path d="M325.592 323.153C317.152 326.574 306.373 325.64 294.752 323.153C294.417 322.281 294.081 321.416 293.76 320.536C271.617 260.496 287.297 173.296 287.297 173.296H322.117L321.333 202.118C319.806 209.733 318.757 217.447 318.08 225.093C313.664 275.382 325.592 323.153 325.592 323.153Z" fill="#57220D"/>
<path d="M325.582 323.134C325.04 321.963 305.208 278.73 311.115 229.956L317.4 235.39C315.274 281.049 325.297 321.986 325.582 323.134Z" fill="#672F18"/>
<path d="M381.855 271.424C378.659 281.052 375.256 288.521 371.553 292.891C369.834 294.92 368.051 296.282 366.189 296.871C360.853 293.932 355.966 290.749 351.5 287.366C350.887 286.914 350.295 286.455 349.695 285.988C348.896 285.368 348.119 284.733 347.362 284.098C347.013 283.807 346.663 283.524 346.328 283.225C345.643 282.651 344.966 282.062 344.309 281.481C343.717 280.952 343.139 280.424 342.576 279.896C339.572 277.111 336.804 274.233 334.25 271.286C334.008 271.011 333.758 270.72 333.523 270.445C333.344 270.238 333.173 270.024 332.995 269.825L332.988 269.817C297.868 227.939 304.317 173.303 304.317 173.303H334.864C337.475 225.689 381.855 271.424 381.855 271.424Z" fill="#57220D"/>
<path d="M341.714 59.8798C339.103 57.8364 337.291 56.7114 336.849 56.3747C336.292 55.9461 336.164 54.8899 335.515 53.8185C334.024 51.3618 330.92 47.0225 327.717 45.8209C327.304 45.6602 326.99 46.1347 327.432 46.6398C328.217 47.5658 329.701 48.8975 329.472 49.1194C328.98 49.5633 325.506 45.0786 324.528 46.1194C323.794 46.9077 328.823 50.9026 328.623 51.1552C328.231 51.6603 324.443 47.076 323.523 48.1169C322.645 49.0965 327.189 51.668 326.997 52.0965C326.79 52.5404 323.644 49.747 323.023 50.3822C322.082 51.3465 327.76 55.1195 327.603 55.6782C327.403 56.5813 324.464 54.691 324.029 55.7624C323.601 56.765 327.71 58.6553 328.488 59.0762C330.286 60.0405 331.591 59.6196 333.025 62.0227C333.817 63.3391 334.594 64.6554 335.365 65.9794L341.714 59.8798Z" fill="#FCB47E"/>
<path d="M269.768 62.8712C272.157 60.5446 273.848 59.2129 274.255 58.8303C274.761 58.3405 274.79 57.2767 275.325 56.1364C276.566 53.5266 279.213 48.8582 282.28 47.2893C282.673 47.0827 283.037 47.5112 282.644 48.0699C281.959 49.0801 280.618 50.5725 280.868 50.7715C281.403 51.1541 284.406 46.302 285.483 47.2204C286.297 47.9168 281.695 52.4705 281.917 52.6924C282.359 53.1516 285.662 48.1618 286.682 49.0878C287.652 49.9679 283.386 53.0368 283.629 53.4425C283.878 53.8634 286.732 50.7179 287.41 51.2843C288.437 52.1338 283.172 56.542 283.379 57.0777C283.671 57.9578 286.397 55.7384 286.939 56.7486C287.467 57.6976 283.564 60.0471 282.837 60.5523C281.146 61.7155 279.805 61.4553 278.621 64.0039C277.964 65.4044 277.322 66.7973 276.687 68.2054L269.768 62.8712Z" fill="#FCB47E"/>
<path d="M335.169 177.578C332.444 179.438 327.671 182.453 321.793 185.063C316.521 187.39 310.358 189.41 303.973 190.007C297.773 190.589 291.353 189.823 285.332 186.716C285.717 183.655 286.081 181.053 286.388 178.979C291.909 182.109 297.902 183.433 303.844 183.617C310.115 183.816 316.336 182.736 321.9 181.183C326.987 179.767 331.531 177.938 335.055 176.315C335.091 176.736 335.126 177.157 335.169 177.578Z" fill="#E25C26"/>
<path d="M279.602 173.611V132.384C279.602 132.384 245.067 126.093 251.852 90.2221C256.161 67.431 271.327 59.288 271.327 59.288L279.738 66.5355C279.738 66.5355 261.853 95.8549 285.395 106.041C285.395 106.041 298.636 105.597 302.081 109.592C302.081 109.592 309.664 116.105 317.669 105.299C317.669 105.299 325.808 101.893 332.743 103.898C338.45 105.544 345.805 90.3599 332.15 64.6146L340.704 56.3262C340.704 56.3262 390.769 107.962 341.667 133.562L338.928 174.752C338.928 174.759 300.926 197.88 279.602 173.611Z" fill="#FF6C31"/>
<path d="M309.641 92.9838C311.146 92.9838 312.366 91.6749 312.366 90.0602C312.366 88.4456 311.146 87.1367 309.641 87.1367C308.136 87.1367 306.916 88.4456 306.916 90.0602C306.916 91.6749 308.136 92.9838 309.641 92.9838Z" fill="#FCB47E"/>
<path d="M317.074 245.608C310.654 232.245 306.459 217.383 304.59 201.426L305.189 201.342C307.051 217.215 311.224 232.008 317.616 245.302L317.074 245.608Z" fill="white"/>
<path d="M333.486 198.406C323.82 198.406 320.731 189.398 320.695 189.306L321.266 189.084C321.294 189.176 324.319 198.015 333.936 197.747L333.95 198.398C333.793 198.406 333.636 198.406 333.486 198.406Z" fill="white"/>
<path d="M279.609 132.385C279.609 132.385 245.067 126.094 251.852 90.2159C252.215 88.2566 252.672 86.3893 253.193 84.6443C253.278 84.5448 253.371 84.4454 253.45 84.3535C252.879 92.4506 252.608 99.5451 255.954 107.214C262.945 123.262 280.08 132.347 279.609 132.385Z" fill="#F0642C"/>
<path d="M341.668 133.562L338.929 174.751C338.929 174.751 331.039 179.558 320.424 182.489C322.257 180.996 329.983 168.323 331.274 161.917C333.593 150.43 333.885 143.817 334.185 131.58C345.613 128.396 358.633 117.597 363.113 99.5742C364.126 111.873 359.26 124.386 341.668 133.562Z" fill="#F0642C"/>
<path d="M371.553 292.887C369.833 294.915 368.05 296.277 366.188 296.867C360.852 293.928 355.965 290.744 351.499 287.361C350.886 286.91 350.294 286.451 349.694 285.984C348.895 285.364 348.118 284.729 347.362 284.094C347.012 283.803 346.663 283.52 346.327 283.221C345.642 282.647 344.965 282.058 344.308 281.476C343.716 280.948 343.138 280.42 342.575 279.892C339.572 277.106 336.804 274.229 334.25 271.282C334.007 271.007 333.757 270.716 333.522 270.44C333.344 270.234 333.172 270.019 332.994 269.82C353.882 288.349 367.244 292.129 371.553 292.887Z" fill="#672F18"/>
<path d="M377.33 270.12C362.628 259.88 353.282 241.367 353.189 241.183L353.696 240.893C353.789 241.076 363.063 259.444 377.644 269.6L377.33 270.12Z" fill="white"/>
<path d="M315.167 345.12H282.102C280.953 345.12 280.033 344.071 280.119 342.839C280.119 342.824 280.119 342.808 280.119 342.793C280.14 342.525 280.176 342.242 280.212 341.966C280.326 341.025 280.561 340.076 280.975 339.487C282.544 337.252 285.583 336.234 291.012 333.931C294.415 332.477 297.304 330.548 298.574 329.645C298.988 329.346 299.523 329.423 299.88 329.79C306.421 336.647 310.431 335.186 311.636 332.362C312.556 330.204 313.855 330.655 314.211 331.283C315.31 333.257 315.916 339.051 316.159 341.959C316.188 342.273 316.216 342.556 316.23 342.785C316.266 343.329 316.287 343.658 316.287 343.658C316.423 344.423 315.874 345.12 315.167 345.12Z" fill="#374263"/>
<path d="M292.879 337.656C290.532 336.432 290.882 333.83 290.882 333.807L291.445 333.898C291.431 333.99 291.167 336.08 293.122 337.098L292.879 337.656Z" fill="white"/>
<path d="M289.983 338.704C287.822 337.395 288.05 335.138 288.064 335.038L288.635 335.115C288.628 335.191 288.449 337.066 290.269 338.168L289.983 338.704Z" fill="white"/>
<path d="M308.643 337.159C306.432 337.159 304.427 336.08 304.398 336.057L304.662 335.513C304.712 335.544 309.727 338.246 312.31 334.802L312.759 335.184C311.611 336.7 310.084 337.159 308.643 337.159Z" fill="white"/>
<path d="M312.204 342.361H292.935V342.973H312.204V342.361Z" fill="white"/>
<path d="M290.466 342.361H285.908V342.973H290.466V342.361Z" fill="white"/>
<path d="M394.95 289.196L378.799 320.146C378.235 321.225 376.937 321.577 375.974 320.888C375.967 320.881 375.953 320.873 375.945 320.865C375.731 320.712 375.525 320.544 375.311 320.376C374.604 319.802 373.948 319.12 373.677 318.447C372.628 315.891 373.284 312.546 374.062 306.34C374.54 302.444 374.383 298.809 374.276 297.163C374.24 296.635 374.561 296.168 375.032 296.015C383.807 293.245 384.577 288.775 382.865 286.265C381.56 284.352 382.558 283.349 383.25 283.326C385.398 283.265 390.399 285.515 392.881 286.717C393.159 286.839 393.402 286.954 393.602 287.054C394.058 287.283 394.336 287.421 394.336 287.421C395 287.681 395.292 288.523 394.95 289.196Z" fill="#374263"/>
<path d="M374.986 306.732C374.437 306.732 374.037 306.648 373.994 306.641L374.115 306.036C374.137 306.044 376.498 306.541 377.668 304.903L378.125 305.278C377.254 306.495 375.906 306.732 374.986 306.732Z" fill="white"/>
<path d="M374.73 310.084C374.181 310.084 373.781 310 373.738 309.992L373.86 309.388C373.881 309.395 376.242 309.893 377.412 308.255L377.869 308.63C376.998 309.847 375.643 310.084 374.73 310.084Z" fill="white"/>
<path d="M382.898 294.876L382.527 294.409C382.57 294.371 386.808 290.414 384.81 286.549L385.31 286.251C387.535 290.56 382.948 294.838 382.898 294.876Z" fill="white"/>
<path d="M391.341 291.624L390.84 291.33L381.591 309.465L382.092 309.759L391.341 291.624Z" fill="white"/>
<path d="M380.928 312.097L380.428 311.803L378.24 316.093L378.74 316.387L380.928 312.097Z" fill="white"/>
<path d="M303.188 82.9844C300.527 82.9844 296.34 81.7675 294.15 78.8364C292.794 77.0226 291.688 73.8159 294.128 68.8643L294.635 69.1551C292.794 72.8975 292.78 76.0276 294.599 78.4614C297.139 81.8594 302.496 82.8313 304.565 82.2267L304.715 82.8237C304.315 82.9232 303.795 82.9844 303.188 82.9844Z" fill="#1C2C5F"/>
<path d="M300.735 83.5784C298.894 83.5784 296.69 83.035 294.293 81.336L294.607 80.8232C300.878 85.2621 305.686 81.4355 305.729 81.3972L306.078 81.887C306.05 81.91 303.952 83.5784 300.735 83.5784Z" fill="#1C2C5F"/>
<path d="M25.5469 185.211C25.554 185.441 25.5611 185.67 25.5611 185.9C26.1675 214.14 29.9342 235.967 35.3345 252.835L49.3169 261.108L38.0882 259.883L37.7672 259.852C44.7298 278.335 53.6756 290.029 61.9509 297.407C67.0944 302.006 71.9882 304.937 75.9689 306.789C76.2329 306.912 76.4897 307.034 76.7465 307.142C77.3886 307.432 78.0092 307.685 78.5942 307.914H86.0633C86.1489 307.539 86.2274 307.164 86.2987 306.789C86.3487 306.552 86.3986 306.315 86.4414 306.078C86.5127 305.764 86.5698 305.45 86.6269 305.144C93.6537 268.256 81.1409 239.847 65.6391 219.964C65.5963 219.895 65.5464 219.834 65.4893 219.765C60.0961 212.87 54.3391 207 48.9316 202.163L46.0781 211.347L44.9866 198.772C35.5913 190.951 27.8796 186.512 25.9892 185.471C25.6967 185.287 25.5469 185.211 25.5469 185.211Z" fill="#9AE5A6"/>
<path d="M25.2891 185.365L25.5601 185.908L42.5387 219.414L42.8383 220.003L47.4682 229.141L47.6251 229.447L62.3851 258.575L62.3993 258.614L86.4475 306.079L86.8114 306.79L87.3821 307.915H88.0384L87.4677 306.79L86.633 305.137L62.9059 258.3L62.4636 257.435L25.9882 185.464L25.7884 185.066L25.2891 185.365Z" fill="white"/>
<path d="M47.4541 229.756L47.7148 229.299L28.0522 216.382L27.7914 216.839L47.4541 229.756Z" fill="white"/>
<path d="M42.7466 220.159L43.0079 219.702L27.6105 209.556L27.3491 210.013L42.7466 220.159Z" fill="white"/>
<path d="M64.7322 261.016L67.5644 222.345L67.0079 222.307L64.1758 260.971L64.7322 261.016Z" fill="white"/>
<path d="M89.6463 315.62C89.6463 315.62 72.4252 325.562 46.515 310.906L54.4621 306.299L41.1932 307.615C31.0274 300.804 19.7203 290.196 7.72114 273.941L10.753 272.188L6.72954 272.586C4.70353 269.808 2.66324 266.862 0.601562 263.747C0.601562 263.747 7.94229 262.629 18.5575 263.349L24.3573 270.91L22.4668 263.693C44.2037 265.989 76.1918 276.352 89.6463 315.62Z" fill="#83C08D"/>
<path d="M91.0276 313.487L0.730469 263.465L0.471898 264.002L90.7691 314.024L91.0276 313.487Z" fill="white"/>
<path d="M11.677 279.379L24.1523 277.287L24.0708 276.728L11.5954 278.819L11.677 279.379Z" fill="white"/>
<path d="M15.8613 284.195L30.3556 280.576L30.2359 280.025L15.7416 283.644L15.8613 284.195Z" fill="white"/>
<path d="M239.257 332.714H81.6279C77.7685 332.714 74.6367 329.354 74.6367 325.214V210.087C74.6367 205.947 77.7685 202.587 81.6279 202.587H239.257C243.117 202.587 246.249 205.947 246.249 210.087V325.206C246.256 329.354 243.124 332.714 239.257 332.714Z" fill="#FF6C31"/>
<path d="M241.044 216.095V319.214C241.044 323.577 237.748 327.12 233.675 327.12H222.553V214.871H84.1065C82.3872 214.871 80.9961 213.378 80.9961 211.534C80.9961 209.69 82.3872 208.197 84.1065 208.197H233.682C237.748 208.19 241.044 211.733 241.044 216.095Z" fill="#57220D"/>
<path d="M198.997 204.28C199.147 204.478 199.297 204.677 199.446 204.884C203.741 210.846 205.617 218.254 204.725 225.739C203.834 233.216 200.288 239.874 194.724 244.489C183.245 254.01 166.688 251.737 157.813 239.415C153.519 233.453 151.635 226.053 152.527 218.568C153.39 211.351 156.729 204.892 161.958 200.307C162.151 200.139 162.336 199.986 162.536 199.818C173.822 190.45 190.022 192.501 198.997 204.28Z" fill="#F49B51"/>
<path d="M176.963 244.112V238.801C174.116 238.747 171.177 237.798 169.465 236.49L170.642 232.969C172.404 234.232 174.958 235.235 177.704 235.235C181.186 235.235 183.54 233.076 183.54 230.084C183.54 227.191 181.628 225.4 177.997 223.824C172.996 221.719 169.907 219.301 169.907 214.724C169.907 210.362 172.796 207.048 177.312 206.26V200.948H180.351V206.053C183.29 206.16 185.302 207.002 186.722 207.897L185.495 211.372C184.467 210.737 182.456 209.581 179.317 209.581C175.543 209.581 174.123 211.999 174.123 214.104C174.123 216.836 175.935 218.206 180.201 220.097C185.252 222.308 187.799 225.04 187.799 229.724C187.799 233.88 185.102 237.768 180.051 238.663V244.135H176.963V244.112Z" fill="#FCC659"/>
<path d="M186.893 188.22C169.429 183.315 151.566 194.527 146.986 213.269C142.413 232.004 152.864 251.183 170.335 256.081C187.799 260.987 205.669 249.775 210.242 231.032C214.822 212.29 204.371 193.126 186.893 188.22ZM204.078 229.295C202.295 236.589 197.979 242.704 191.908 246.507C185.844 250.318 178.76 251.367 171.955 249.454C157.922 245.512 149.49 230.053 153.164 214.991C154.947 207.698 159.256 201.583 165.327 197.772C171.177 194.098 177.983 192.996 184.567 194.642C184.81 194.703 185.038 194.764 185.281 194.833C199.092 198.705 207.467 213.721 204.249 228.537C204.192 228.798 204.142 229.05 204.078 229.295Z" fill="#FCC659"/>
<path d="M130.709 160.886C112.661 160.358 97.6368 175.626 97.1374 194.997C96.6452 214.359 110.877 230.484 128.933 231.013C146.982 231.541 162.013 216.272 162.505 196.902C162.997 177.54 148.758 161.414 130.709 160.886ZM156.127 196.719C155.935 204.257 153.017 211.26 147.909 216.448C142.808 221.637 136.131 224.385 129.104 224.178C114.601 223.75 103.123 210.755 103.515 195.188C103.708 187.65 106.618 180.647 111.726 175.458C116.648 170.453 123.04 167.721 129.803 167.721C130.053 167.721 130.288 167.728 130.538 167.736C144.806 168.149 156.134 180.739 156.134 195.946C156.134 196.198 156.134 196.458 156.127 196.719Z" fill="#FCC659"/>
<path d="M150.184 178.081C150.334 178.28 150.491 178.479 150.634 178.685C154.928 184.647 156.805 192.055 155.913 199.54C155.021 207.017 151.476 213.676 145.911 218.291C134.433 227.811 117.875 225.538 109.001 213.217C104.706 207.255 102.823 199.854 103.714 192.369C104.578 185.152 107.916 178.693 113.145 174.109C113.338 173.94 113.524 173.787 113.723 173.627C125.009 164.251 141.21 166.302 150.184 178.081Z" fill="#F49B51"/>
<path d="M128.152 217.541V212.23C125.306 212.176 122.366 211.227 120.654 209.918L121.831 206.398C123.593 207.661 126.147 208.663 128.894 208.663C132.375 208.663 134.729 206.505 134.729 203.513C134.729 200.62 132.818 198.829 129.186 197.252C124.186 195.148 121.097 192.729 121.097 188.153C121.097 183.79 123.986 180.477 128.502 179.688V174.377H131.541V179.482C134.48 179.589 136.491 180.431 137.911 181.326L136.684 184.801C135.657 184.173 133.645 183.01 130.506 183.01C126.732 183.01 125.313 185.428 125.313 187.533C125.313 190.265 127.125 191.635 131.391 193.525C136.442 195.737 138.988 198.469 138.988 203.153C138.988 207.309 136.292 211.196 131.241 212.092V217.564H128.152V217.541Z" fill="#FCC659"/>
<path d="M228.293 343.481H81.4139C77.6686 343.481 74.6367 340.228 74.6367 336.21V222.27C74.6367 218.252 77.6686 214.999 81.4139 214.999H228.293C232.038 214.999 235.07 218.252 235.07 222.27V336.203C235.07 340.22 232.038 343.481 228.293 343.481Z" fill="#FF6C31"/>
<path d="M81.8141 291.12H81.0508V310.513H81.8141V291.12Z" fill="#2E4882"/>
<path d="M246.058 252.863V289.17C246.058 293.731 242.619 297.428 238.36 297.428H209.083C199.723 297.428 192.133 289.292 192.133 279.244C192.133 274.223 194.03 269.677 197.098 266.386C200.166 263.096 204.403 261.06 209.083 261.06H238.36C238.574 261.06 238.788 261.067 239.002 261.09C242.961 260.738 246.058 257.187 246.058 252.863Z" fill="#57220D"/>
<path d="M207.536 287.735C211.906 287.735 215.448 283.935 215.448 279.247C215.448 274.56 211.906 270.76 207.536 270.76C203.167 270.76 199.625 274.56 199.625 279.247C199.625 283.935 203.167 287.735 207.536 287.735Z" fill="#FF6C31"/>
<path d="M239.544 43.3495C227.146 39.7142 213.919 39.0943 201.314 41.926C195.008 43.3036 188.844 45.4465 183.023 48.393C177.209 51.3318 171.651 54.9135 166.636 59.2375C161.607 63.5386 157.006 68.4367 153.039 73.8704C149.08 79.3195 145.713 85.2507 143.023 91.5263C142.353 93.0952 141.76 94.7024 141.14 96.2943C140.612 97.9244 140.013 99.5316 139.542 101.177C138.572 104.468 137.723 107.797 137.109 111.187C136.81 112.879 136.524 114.578 136.31 116.292C136.253 116.721 136.196 117.149 136.153 117.578L136.103 118.037L136.075 118.32C136.039 118.703 135.989 119.078 135.961 119.46L130.004 118.818C132.508 125.629 135.704 131.813 139.392 137.231C141.932 131.093 145.092 125.598 148.68 120.846L142.724 120.203C142.752 119.851 142.795 119.506 142.831 119.162L142.859 118.902L142.902 118.481C142.938 118.091 142.995 117.693 143.045 117.302C143.237 115.733 143.494 114.172 143.772 112.619C144.329 109.504 145.113 106.45 146.005 103.427C146.44 101.912 146.99 100.442 147.475 98.9423C148.045 97.4805 148.588 96.0111 149.201 94.5723C151.669 88.8171 154.758 83.3833 158.382 78.3858C162.021 73.4036 166.244 68.9112 170.852 64.9621C175.454 60.9901 180.554 57.7069 185.89 55.013C191.227 52.3037 196.884 50.3445 202.669 49.0818C214.233 46.4797 226.339 47.0613 237.732 50.3904L239.544 43.3495Z" fill="#FF6C31"/>
<path d="M86.651 274.041C69.1802 278.916 58.6935 298.057 63.2378 316.815C67.782 335.557 85.6309 346.815 103.109 341.932C120.58 337.057 131.074 317.909 126.522 299.159C121.985 280.408 104.136 269.166 86.651 274.041ZM120.351 300.881C122.121 308.174 121.129 315.774 117.569 322.279C114.009 328.784 108.309 333.407 101.504 335.305C87.4643 339.216 73.0682 330.154 69.4157 315.085C67.6465 307.792 68.6309 300.192 72.1907 293.687C75.6221 287.411 81.0581 282.88 87.5499 280.868C87.7853 280.791 88.0207 280.73 88.2562 280.661C102.067 276.804 116.214 285.521 120.152 300.131C120.223 300.383 120.294 300.628 120.351 300.881Z" fill="#FCC659"/>
<path d="M120.158 300.142C120.222 300.387 120.294 300.64 120.351 300.885C122.12 308.178 121.128 315.778 117.569 322.283C114.009 328.788 108.309 333.411 101.503 335.309C87.4638 339.22 73.0677 330.158 69.4152 315.089C67.646 307.796 68.6304 300.196 72.1902 293.691C75.6216 287.415 81.0576 282.884 87.5494 280.872C87.7848 280.795 88.0202 280.734 88.2557 280.665C102.074 276.808 116.22 285.525 120.158 300.142Z" fill="#F49B51"/>
<path d="M98.8706 329.225L97.4938 324.121C94.7472 324.917 91.6797 324.886 89.6893 324.136L89.9105 320.401C91.9293 321.09 94.6402 321.289 97.2797 320.47C100.626 319.429 102.323 316.659 101.546 313.781C100.797 311.003 98.4996 309.855 94.6045 309.419C89.2542 308.891 85.6587 307.483 84.4745 303.09C83.3473 298.896 85.2663 294.855 89.3897 292.75L88.0129 287.646L90.9306 286.742L92.2504 291.64C95.1039 290.867 97.2512 291.074 98.8492 291.51L98.571 295.207C97.4153 294.908 95.1895 294.396 92.1719 295.329C88.5479 296.454 87.806 299.202 88.3482 301.222C89.0544 303.847 91.1518 304.62 95.7388 305.171C101.161 305.791 104.321 307.659 105.534 312.151C106.611 316.146 105.027 320.684 100.411 323.049L101.831 328.307L98.8706 329.225Z" fill="#FCC659"/>
<path d="M71.5742 288.378C73.9926 289.694 75.6548 291.714 76.7891 294.248C77.9233 291.714 79.5927 289.686 82.011 288.37C79.5927 287.054 77.9233 285.033 76.7891 282.5C75.6548 285.033 73.9926 287.061 71.5742 288.378Z" fill="#FFE6A6"/>
<path d="M82.2618 297.494C83.6672 298.259 84.6303 299.43 85.2937 300.907C85.9572 299.438 86.9202 298.259 88.3256 297.494C86.9202 296.728 85.95 295.557 85.2937 294.08C84.6303 295.55 83.6672 296.728 82.2618 297.494Z" fill="#FFE6A6"/>
<path d="M106.203 176.336C108.621 177.652 110.284 179.672 111.418 182.206C112.552 179.672 114.222 177.644 116.64 176.328C114.222 175.012 112.552 172.991 111.418 170.458C110.277 172.984 108.614 175.019 106.203 176.336Z" fill="#FFE6A6"/>
<path d="M141.414 208.511C142.819 209.276 143.783 210.447 144.446 211.924C145.109 210.455 146.072 209.276 147.478 208.511C146.072 207.746 145.102 206.575 144.446 205.098C143.783 206.559 142.812 207.746 141.414 208.511Z" fill="#FFE6A6"/>
<path d="M286.176 12.5319C288.594 13.8483 290.256 15.8687 291.391 18.4019C292.525 15.8687 294.194 13.8406 296.613 12.5243C294.194 11.2079 292.525 9.1875 291.391 6.6543C290.256 9.17985 288.594 11.2156 286.176 12.5319Z" fill="#FFE6A6"/>
<path d="M424.852 319.469C427.27 320.786 428.932 322.806 430.066 325.339C431.201 322.806 432.87 320.778 435.288 319.462C432.87 318.145 431.201 316.125 430.066 313.592C428.932 316.117 427.27 318.145 424.852 319.469Z" fill="#FFE6A6"/>
<path d="M421.328 337.032C422.733 337.797 423.697 338.968 424.36 340.445C425.023 338.975 425.987 337.797 427.392 337.032C425.987 336.266 425.016 335.095 424.36 333.618C423.697 335.088 422.733 336.266 421.328 337.032Z" fill="#FFE6A6"/>
</svg>
