<svg width="50" height="50" viewBox="0 0 50 50" fill="none" xmlns="http://www.w3.org/2000/svg">
<path d="M11.3885 4.62899C15.4174 1.93699 20.1541 0.500094 24.9995 0.5C31.4936 0.512579 37.7181 3.09791 42.3101 7.68992C46.9022 12.282 49.4875 18.5067 49.5 25.001C49.4998 29.8463 48.0629 34.5827 45.371 38.6115C42.6789 42.6405 38.8525 45.7807 34.3757 47.635C29.899 49.4894 24.9728 49.9746 20.2203 49.0292C15.4678 48.0839 11.1023 45.7505 7.67589 42.3241C4.24951 38.8977 1.91611 34.5322 0.970772 29.7797C0.025434 25.0272 0.510616 20.101 2.36496 15.6243C4.21931 11.1475 7.35953 7.32109 11.3885 4.62899Z" fill="white" stroke="#FF6C31"/>
<path d="M32.8359 26.4183L23.2205 35.0721C22.8637 35.3927 22.4021 35.5722 21.9224 35.5769C21.6554 35.5783 21.391 35.5234 21.1466 35.4157C20.9023 35.308 20.6833 35.15 20.5042 34.9519C20.16 34.5757 19.9793 34.0782 20.0019 33.5688C20.0244 33.0595 20.2483 32.5799 20.6244 32.2356L28.6532 25L20.6244 17.7644C20.2609 17.417 20.0479 16.941 20.0312 16.4385C20.0144 15.9359 20.1951 15.4468 20.5346 15.0759C20.874 14.705 21.3453 14.4818 21.8474 14.4541C22.3494 14.4264 22.8423 14.5965 23.2205 14.9279L32.8359 23.5817C33.0326 23.7619 33.1898 23.981 33.2972 24.2252C33.4047 24.4693 33.4602 24.7332 33.4602 25C33.4602 25.2668 33.4047 25.5306 33.2972 25.7748C33.1898 26.019 33.0326 26.2381 32.8359 26.4183Z" fill="#FF6C31"/>
</svg>
