<svg width="40" height="40" viewBox="0 0 40 40" fill="none" xmlns="http://www.w3.org/2000/svg">
<circle cx="20" cy="20" r="20" fill="#8DB361"/>
<path d="M26.4492 25.0581L30.666 29.2739L29.2729 30.667L25.0571 26.4502C23.4884 27.7077 21.5373 28.3916 19.5269 28.3888C14.6357 28.3888 10.666 24.4191 10.666 19.5279C10.666 14.6367 14.6357 10.667 19.5269 10.667C24.4181 10.667 28.3878 14.6367 28.3878 19.5279C28.3906 21.5383 27.7067 23.4894 26.4492 25.0581ZM24.4742 24.3275C25.7237 23.0426 26.4215 21.3202 26.4187 19.5279C26.4187 15.7197 23.3341 12.6361 19.5269 12.6361C15.7187 12.6361 12.6351 15.7197 12.6351 19.5279C12.6351 23.3351 15.7187 26.4197 19.5269 26.4197C21.3192 26.4225 23.0416 25.7247 24.3265 24.4752L24.4742 24.3275Z" fill="white"/>
</svg>
