<svg width="16" height="16" viewBox="0 0 16 16" fill="none" xmlns="http://www.w3.org/2000/svg">
<path d="M7.85792 12.825L4.16929 15.65C3.98652 15.8 3.78713 15.8707 3.57113 15.862C3.35513 15.854 3.16406 15.7917 2.9979 15.675C2.83175 15.5583 2.70314 15.4 2.61209 15.2C2.52037 15 2.51605 14.7833 2.59913 14.55L4.01975 9.925L0.405892 7.35C0.206506 7.21667 0.0818904 7.04167 0.032044 6.825C-0.0178023 6.60833 -0.00949449 6.40833 0.0569673 6.225C0.123429 6.04167 0.239737 5.879 0.405892 5.737C0.572046 5.59567 0.771431 5.525 1.00405 5.525H5.4653L6.91084 0.725C6.99392 0.491667 7.12285 0.312334 7.29765 0.187C7.47178 0.0623336 7.65853 0 7.85792 0C8.05731 0 8.24406 0.0623336 8.41819 0.187C8.59299 0.312334 8.72192 0.491667 8.805 0.725L10.2505 5.525H14.7118C14.9444 5.525 15.1438 5.59567 15.3099 5.737C15.4761 5.879 15.5924 6.04167 15.6589 6.225C15.7253 6.40833 15.7336 6.60833 15.6838 6.825C15.6339 7.04167 15.5093 7.21667 15.3099 7.35L11.6961 9.925L13.1167 14.55C13.1998 14.7833 13.1958 15 13.1047 15.2C13.013 15.4 12.8841 15.5583 12.7179 15.675C12.5518 15.7917 12.3607 15.854 12.1447 15.862C11.9287 15.8707 11.7293 15.8 11.5465 15.65L7.85792 12.825Z" fill="#FF6C31"/>
</svg>
