<svg width="40" height="40" viewBox="0 0 40 40" fill="none" xmlns="http://www.w3.org/2000/svg">
<circle cx="20" cy="20" r="20" fill="#FF6C34"/>
<path d="M29.2054 27.8328C28.0903 25.8176 26.3591 24.2557 24.292 23.3996C25.3065 22.6021 26.056 21.4902 26.4341 20.2215C26.8122 18.9527 26.7999 17.5914 26.3989 16.3304C25.9978 15.0694 25.2284 13.9726 24.1996 13.1954C23.1708 12.4182 21.9348 12 20.6666 12C19.3984 12 18.1623 12.4182 17.1335 13.1954C16.1047 13.9726 15.3353 15.0694 14.9343 16.3304C14.5332 17.5914 14.5209 18.9527 14.899 20.2215C15.2772 21.4902 16.0266 22.6021 17.0411 23.3996C14.974 24.2557 13.2428 25.8176 12.1277 27.8328C12.0012 28.0627 11.967 28.3358 12.0326 28.5921C12.0982 28.8484 12.2583 29.0668 12.4776 29.1994C12.6969 29.3321 12.9574 29.3679 13.202 29.2992C13.4465 29.2304 13.6549 29.0626 13.7814 28.8328C14.4793 27.5661 15.4829 26.5143 16.6915 25.7829C17.9001 25.0516 19.271 24.6666 20.6666 24.6666C22.0621 24.6666 23.4331 25.0516 24.6416 25.7829C25.8502 26.5143 26.8539 27.5661 27.5517 28.8328C27.6361 28.9843 27.7568 29.1102 27.9018 29.1979C28.0468 29.2855 28.2111 29.3321 28.3786 29.3328C28.5461 29.3342 28.7109 29.2881 28.8556 29.1994C28.9642 29.1338 29.0595 29.0464 29.1358 28.9422C29.2122 28.838 29.2683 28.7191 29.3007 28.5921C29.3332 28.4652 29.3415 28.3328 29.3252 28.2025C29.3088 28.0722 29.2681 27.9466 29.2054 27.8328ZM16.5323 18.3331C16.5323 17.4761 16.7748 16.6383 17.2291 15.9257C17.6833 15.2131 18.329 14.6577 19.0845 14.3298C19.8399 14.0018 20.6712 13.916 21.4731 14.0832C22.2751 14.2504 23.0117 14.6631 23.5899 15.2691C24.1681 15.8751 24.5619 16.6472 24.7214 17.4878C24.8809 18.3283 24.799 19.1996 24.4861 19.9914C24.1732 20.7832 23.6433 21.4599 22.9634 21.936C22.2836 22.4122 21.4843 22.6663 20.6666 22.6663C19.5701 22.6663 18.5185 22.2098 17.7432 21.3972C16.9679 20.5845 16.5323 19.4824 16.5323 18.3331Z" fill="white"/>
</svg>
