<svg width="80" height="80" viewBox="0 0 80 80" fill="none" xmlns="http://www.w3.org/2000/svg">
<circle cx="40" cy="40" r="40" fill="#F6F9F2"/>
<path d="M58.128 54.5532C55.7606 50.4608 52.0852 47.2888 47.6965 45.5504C49.8504 43.9308 51.4415 41.6728 52.2443 39.0963C53.0471 36.5197 53.021 33.7553 52.1695 31.1945C51.3181 28.6337 49.6846 26.4064 47.5003 24.828C45.3161 23.2497 42.6919 22.4004 39.9994 22.4004C37.3069 22.4004 34.6827 23.2497 32.4985 24.828C30.3143 26.4064 28.6807 28.6337 27.8293 31.1945C26.9779 33.7553 26.9517 36.5197 27.7545 39.0963C28.5573 41.6728 30.1484 43.9308 32.3024 45.5504C27.9136 47.2888 24.2383 50.4608 21.8708 54.5532C21.6022 55.02 21.5296 55.5746 21.6688 56.0951C21.8081 56.6155 22.1479 57.0592 22.6135 57.3285C23.0791 57.5978 23.6323 57.6706 24.1514 57.531C24.6706 57.3913 25.1131 57.0507 25.3818 56.5839C26.8633 54.0116 28.9941 51.8755 31.56 50.3904C34.1259 48.9052 37.0366 48.1234 39.9994 48.1234C42.9622 48.1234 45.8729 48.9052 48.4388 50.3904C51.0047 51.8755 53.1355 54.0116 54.6171 56.5839C54.7962 56.8917 55.0524 57.1472 55.3603 57.3253C55.6682 57.5033 56.0171 57.5978 56.3725 57.5993C56.7283 57.6021 57.0782 57.5086 57.3853 57.3285C57.6159 57.1953 57.8181 57.0178 57.9803 56.8061C58.1425 56.5945 58.2614 56.3529 58.3304 56.0952C58.3994 55.8374 58.417 55.5686 58.3823 55.304C58.3476 55.0394 58.2611 54.7843 58.128 54.5532ZM31.2221 35.2615C31.2221 33.5211 31.7368 31.8198 32.7013 30.3727C33.6658 28.9255 35.0366 27.7977 36.6405 27.1316C38.2443 26.4656 40.0091 26.2913 41.7118 26.6309C43.4144 26.9704 44.9784 27.8085 46.2059 29.0392C47.4335 30.2698 48.2694 31.8378 48.6081 33.5448C48.9468 35.2518 48.773 37.0211 48.1086 38.629C47.4443 40.237 46.3193 41.6113 44.8758 42.5782C43.4324 43.5451 41.7354 44.0612 39.9994 44.0612C37.6715 44.0612 35.439 43.1341 33.7929 41.4839C32.1468 39.8336 31.2221 37.5953 31.2221 35.2615Z" fill="#D0DFBC"/>
</svg>
